<svg xmlns="http://www.w3.org/2000/svg" viewBox="0 0 256 256"><defs><linearGradient id="a" x1="63.997" x2="192" y1="128" y2="128" gradientTransform="matrix(2 0 0 2 -127.99 -128.01)" gradientUnits="userSpaceOnUse"><stop offset="0" stop-color="#d50000"/><stop offset=".5" stop-color="#a0f"/><stop offset="1" stop-color="#2962ff"/></linearGradient></defs><path fill="url(#a)" d="m87.906 228.55-36.234-75.684 51.672-52.744h42.666l-54.244 53.602 36.664 74.828zM0 228.764l51.458-205.82h37.306l-51.458 205.82zm144.08 0 51.458-205.82h37.306l-51.458 205.82zm85.976 4.288q-8.362 0-14.365-5.789t-6.003-14.794q0-10.077 7.718-17.796 7.933-7.933 18.224-7.933 8.79 0 14.58 5.79 5.79 5.788 5.79 14.58 0 10.29-7.934 18.223-7.718 7.719-18.01 7.719z"/></svg>